<svg width="41" height="41" viewBox="0 0 41 41" fill="none" xmlns="http://www.w3.org/2000/svg">
<path d="M4.43 36.8133C4.35756 36.8135 4.28705 36.79 4.22913 36.7465C4.17121 36.703 4.12904 36.6418 4.109 36.5722C4.08897 36.5026 4.09215 36.4284 4.11807 36.3607C4.14399 36.2931 4.19124 36.2357 4.25266 36.1973L19.348 26.746L2.18466 36.6547C2.10879 36.6953 2.02013 36.705 1.93726 36.6818C1.85438 36.6585 1.7837 36.6041 1.74003 36.53C1.69635 36.4558 1.68306 36.3676 1.70294 36.2839C1.72281 36.2001 1.77432 36.1273 1.84666 36.0807L2.174 35.8807L1.51933 36.2587C1.44321 36.3037 1.35234 36.3166 1.2667 36.2946C1.18106 36.2726 1.10766 36.2174 1.06266 36.1413C1.01767 36.0652 1.00475 35.9743 1.02675 35.8887C1.04876 35.8031 1.10388 35.7297 1.18 35.6847L8.70333 31.122L1.01466 35.5667C0.938724 35.6119 0.847913 35.6252 0.762209 35.6035C0.676505 35.5818 0.602928 35.5269 0.557664 35.451C0.512401 35.3751 0.499158 35.2842 0.52085 35.1985C0.542542 35.1128 0.597391 35.0393 0.673331 34.994L14.2887 26.628L0.853331 34.3853C0.777559 34.4272 0.688459 34.438 0.604889 34.4153C0.521319 34.3927 0.449837 34.3384 0.405571 34.264C0.361306 34.1896 0.34773 34.1009 0.367718 34.0167C0.387706 33.9324 0.439689 33.8593 0.512664 33.8127L12.6033 26.4187L0.853331 33.2027C0.777214 33.2477 0.686339 33.2606 0.600697 33.2386C0.515056 33.2166 0.441663 33.1614 0.396664 33.0853C0.351666 33.0092 0.338748 32.9183 0.360752 32.8327C0.382756 32.7471 0.437881 32.6737 0.513998 32.6287L6.64066 28.9247L0.853331 32.2653C0.777508 32.3066 0.688648 32.3168 0.605446 32.2938C0.522243 32.2709 0.451187 32.2166 0.407226 32.1423C0.363266 32.068 0.349829 31.9796 0.369743 31.8956C0.389656 31.8116 0.441368 31.7386 0.513998 31.692L4.78066 29.118L0.853998 31.3847C0.778369 31.4257 0.689814 31.4359 0.606852 31.4131C0.523891 31.3903 0.452948 31.3363 0.408863 31.2624C0.364778 31.1886 0.350963 31.1005 0.370309 31.0167C0.389655 30.9329 0.440663 30.8598 0.512664 30.8127L12.546 23.4087L0.853331 30.1593C0.777806 30.2016 0.688779 30.2129 0.605089 30.1908C0.521399 30.1686 0.449612 30.1148 0.404917 30.0406C0.360223 29.9665 0.346128 29.8779 0.365616 29.7935C0.385103 29.7092 0.436643 29.6357 0.509331 29.5887L14.7427 20.668L0.853331 28.6867C0.777702 28.7277 0.689147 28.7379 0.606185 28.7151C0.523224 28.6923 0.452282 28.6383 0.408196 28.5644C0.364111 28.4906 0.350296 28.4025 0.369642 28.3187C0.388988 28.2349 0.439996 28.1618 0.511998 28.1147L7.72333 23.6833L0.853331 27.6507C0.777806 27.693 0.688779 27.7043 0.605089 27.6821C0.521399 27.6599 0.449612 27.6061 0.404917 27.532C0.360223 27.4578 0.346128 27.3692 0.365616 27.2848C0.385103 27.2005 0.436643 27.127 0.509331 27.08L11.2973 20.2947L0.853331 26.3247C0.777995 26.3668 0.689263 26.378 0.605802 26.356C0.522342 26.3341 0.45066 26.2806 0.405837 26.2068C0.361014 26.1331 0.346546 26.0448 0.365475 25.9606C0.384404 25.8764 0.435256 25.8028 0.507331 25.7553L11.1113 18.9893L0.853331 24.9113C0.777942 24.9528 0.689444 24.9635 0.606346 24.9412C0.523248 24.9189 0.451987 24.8653 0.407469 24.7917C0.362951 24.7181 0.348624 24.6301 0.367484 24.5462C0.386345 24.4622 0.436932 24.3888 0.508664 24.3413L7.422 19.98L0.853331 23.772C0.777836 23.8123 0.689723 23.8221 0.607244 23.7992C0.524765 23.7763 0.454242 23.7226 0.410282 23.6492C0.366323 23.5757 0.352296 23.4882 0.371107 23.4047C0.389919 23.3212 0.440127 23.2482 0.511331 23.2007L2.02933 22.26L0.853331 22.9387C0.777479 22.9843 0.686612 22.9979 0.600721 22.9765C0.514829 22.9551 0.440948 22.9005 0.395331 22.8247C0.349714 22.7488 0.336097 22.6579 0.357476 22.5721C0.378855 22.4862 0.433479 22.4123 0.509331 22.3667L3.548 20.46L0.853331 22.0153C0.778016 22.0556 0.690125 22.0654 0.607788 22.0427C0.525451 22.0201 0.454949 21.9667 0.410824 21.8936C0.366699 21.8205 0.352318 21.7332 0.370648 21.6498C0.388977 21.5664 0.438618 21.4932 0.509331 21.4453L2.33333 20.3L0.853331 21.1527C0.777806 21.195 0.688779 21.2063 0.605089 21.1841C0.521399 21.1619 0.449612 21.1081 0.404917 21.034C0.360223 20.9598 0.346128 20.8712 0.365616 20.7868C0.385103 20.7025 0.436643 20.629 0.509331 20.582L1.03733 20.2487L0.853331 20.3547C0.778419 20.3954 0.690731 20.4059 0.608312 20.384C0.525894 20.3621 0.455014 20.3094 0.410259 20.2368C0.365504 20.1642 0.350279 20.0772 0.367716 19.9937C0.385153 19.9102 0.433925 19.8366 0.503998 19.788L4.06133 17.46L0.853331 19.3133C0.778047 19.3562 0.689037 19.368 0.605157 19.3464C0.521278 19.3248 0.449118 19.2713 0.403964 19.1974C0.35881 19.1235 0.344209 19.0349 0.363255 18.9504C0.382301 18.8658 0.433497 18.7921 0.505998 18.7447L1.18866 18.3047L0.855331 18.498C0.780924 18.5407 0.692918 18.5531 0.609623 18.5325C0.526327 18.512 0.454157 18.4601 0.408127 18.3877C0.362096 18.3153 0.34575 18.228 0.362489 18.1438C0.379228 18.0597 0.427764 17.9853 0.497998 17.936L4.10333 15.428L0.853331 17.3C0.779513 17.3426 0.692161 17.3554 0.609236 17.3356C0.526312 17.3158 0.454119 17.265 0.407503 17.1936C0.360886 17.1223 0.343388 17.0357 0.358608 16.9519C0.373829 16.868 0.420609 16.7931 0.489331 16.7427L3.53333 14.5133L0.853331 16.0587C0.779247 16.1069 0.689023 16.1238 0.602506 16.1055C0.515989 16.0873 0.440267 16.0354 0.391998 15.9613C0.343728 15.8872 0.326866 15.797 0.345119 15.7105C0.363373 15.624 0.415247 15.5483 0.489331 15.5L1.836 14.512L0.853331 15.0787C0.782814 15.1211 0.699082 15.136 0.618261 15.1204C0.53744 15.1048 0.465246 15.0599 0.415582 14.9942C0.365917 14.9286 0.342295 14.8469 0.349265 14.7649C0.356234 14.6829 0.393303 14.6063 0.453331 14.55L2.22733 12.846L0.853331 13.6413C0.785877 13.6802 0.706964 13.6942 0.630272 13.6809C0.553581 13.6676 0.483945 13.628 0.433438 13.5687C0.382931 13.5095 0.354737 13.4345 0.353743 13.3567C0.35275 13.2789 0.379019 13.2031 0.427998 13.1427L1.09466 12.324C1.03247 12.3287 0.970227 12.3155 0.915216 12.2861C0.860205 12.2567 0.814693 12.2123 0.783998 12.158C0.740008 12.0815 0.728148 11.9907 0.751018 11.9054C0.773888 11.8202 0.829621 11.7475 0.905998 11.7033L2.272 10.914C2.33947 10.8749 2.4185 10.8607 2.49536 10.8738C2.57222 10.887 2.64204 10.9267 2.69266 10.986C2.74339 11.0454 2.77164 11.1207 2.77249 11.1988C2.77334 11.2769 2.74674 11.3528 2.69733 11.4133L2.09066 12.1567L4.27266 10.9C4.34318 10.8575 4.42691 10.8427 4.50773 10.8583C4.58856 10.8739 4.66075 10.9188 4.71041 10.9844C4.76008 11.0501 4.7837 11.1318 4.77673 11.2138C4.76976 11.2958 4.73269 11.3723 4.67266 11.4287L2.89933 13.132L6.766 10.9C6.83982 10.8574 6.92717 10.8446 7.01009 10.8644C7.09302 10.8842 7.16521 10.935 7.21183 11.0064C7.25844 11.0777 7.27594 11.1643 7.26072 11.2481C7.2455 11.332 7.19872 11.4069 7.13 11.4573L5.782 12.4433L8.45866 10.9C8.53248 10.8574 8.61983 10.8446 8.70276 10.8644C8.78568 10.8842 8.85788 10.935 8.90449 11.0064C8.95111 11.0777 8.96861 11.1643 8.95339 11.2481C8.93817 11.332 8.89139 11.4069 8.82266 11.4573L5.78066 13.6887L10.614 10.8987C10.6883 10.8575 10.7754 10.8463 10.8576 10.8672C10.9399 10.8882 11.0111 10.9397 11.0567 11.0113C11.1022 11.0829 11.1188 11.1692 11.1029 11.2525C11.0871 11.3359 11.04 11.4101 10.9713 11.46L7.368 13.9667L12.6833 10.9C12.7584 10.8592 12.8463 10.8489 12.9288 10.871C13.0113 10.8932 13.0822 10.9462 13.1267 11.0191C13.1713 11.0919 13.1862 11.1792 13.1683 11.2627C13.1504 11.3462 13.1012 11.4197 13.0307 11.468L12.3433 11.9113L14.096 10.9C14.1709 10.8592 14.2586 10.8487 14.341 10.8707C14.4234 10.8926 14.4943 10.9453 14.5391 11.0179C14.5838 11.0905 14.5991 11.1775 14.5816 11.2609C14.5642 11.3444 14.5154 11.418 14.4453 11.4667L10.8867 13.7933L15.902 10.9C15.9773 10.8597 16.0652 10.8499 16.1475 10.8726C16.2299 10.8952 16.3004 10.9486 16.3445 11.0217C16.3886 11.0949 16.403 11.1821 16.3847 11.2655C16.3664 11.3489 16.3167 11.4221 16.246 11.47L15.7187 11.8033L17.282 10.9C17.3573 10.8597 17.4452 10.8499 17.5275 10.8726C17.6099 10.8952 17.6804 10.9486 17.7245 11.0217C17.7686 11.0949 17.783 11.1821 17.7647 11.2655C17.7464 11.3489 17.6967 11.4221 17.626 11.47L15.8047 12.616L18.7773 10.9C18.8529 10.8577 18.9419 10.8464 19.0256 10.8686C19.1093 10.8907 19.1811 10.9446 19.2257 11.0187C19.2704 11.0929 19.2845 11.1815 19.265 11.2658C19.2456 11.3502 19.194 11.4236 19.1213 11.4707L16.0867 13.3747L20.376 10.9C20.4515 10.8597 20.5396 10.8499 20.6221 10.8728C20.7046 10.8957 20.7751 10.9494 20.819 11.0228C20.863 11.0963 20.877 11.1838 20.8582 11.2673C20.8394 11.3508 20.7892 11.4238 20.718 11.4713L19.2047 12.4087L21.8193 10.9C21.8946 10.8597 21.9825 10.8499 22.0649 10.8726C22.1472 10.8952 22.2177 10.9486 22.2618 11.0217C22.306 11.0949 22.3203 11.1821 22.302 11.2655C22.2837 11.3489 22.234 11.4221 22.1633 11.47L15.2507 15.8293L23.792 10.896C23.8673 10.8539 23.9561 10.8426 24.0395 10.8646C24.123 10.8866 24.1947 10.9401 24.2395 11.0138C24.2843 11.0876 24.2988 11.1759 24.2799 11.2601C24.2609 11.3443 24.2101 11.4179 24.138 11.4653L13.5333 18.2333L26.2373 10.9C26.3127 10.8585 26.4012 10.8478 26.4843 10.8701C26.5674 10.8924 26.6387 10.946 26.6832 11.0196C26.7277 11.0932 26.742 11.1812 26.7232 11.2651C26.7043 11.3491 26.6537 11.4225 26.582 11.47L15.8 18.2527L28.5333 10.9C28.6089 10.8602 28.6968 10.8509 28.779 10.874C28.8612 10.8971 28.9314 10.9509 28.9751 11.0243C29.0188 11.0977 29.0327 11.185 29.0139 11.2683C28.9951 11.3516 28.945 11.4245 28.874 11.472L21.658 15.9053L30.3333 10.9C30.4089 10.8577 30.4979 10.8464 30.5816 10.8686C30.6653 10.8907 30.7371 10.9446 30.7817 11.0187C30.8264 11.0929 30.8405 11.1815 30.821 11.2658C30.8016 11.3502 30.75 11.4236 30.6773 11.4707L16.438 20.3927L32.8827 10.9C32.9583 10.859 33.0468 10.8488 33.1298 10.8716C33.2128 10.8944 33.2837 10.9483 33.3278 11.0222C33.3719 11.0961 33.3857 11.1842 33.3664 11.268C33.347 11.3518 33.296 11.4249 33.224 11.472L21.2 18.8667L34.3333 11.2853C34.4092 11.2441 34.498 11.2339 34.5812 11.2568C34.6644 11.2798 34.7355 11.3341 34.7794 11.4084C34.8234 11.4827 34.8368 11.5711 34.8169 11.6551C34.797 11.7391 34.7453 11.812 34.6727 11.8587L30.4107 14.4333L34.8627 11.8633C34.9385 11.8221 35.0273 11.8119 35.1105 11.8348C35.1938 11.8578 35.2648 11.9121 35.3088 11.9864C35.3527 12.0607 35.3662 12.1491 35.3463 12.2331C35.3263 12.3171 35.2746 12.39 35.202 12.4367L29.072 16.1433L35.1287 12.6467C35.2044 12.6048 35.2935 12.594 35.3771 12.6166C35.4607 12.6393 35.5322 12.6936 35.5764 12.768C35.6207 12.8424 35.6343 12.9311 35.6143 13.0153C35.5943 13.0996 35.5423 13.1727 35.4693 13.2193L23.384 20.6073L35.1467 13.8167C35.2222 13.7768 35.3102 13.7675 35.3924 13.7907C35.4746 13.8138 35.5448 13.8676 35.5885 13.941C35.6322 14.0144 35.646 14.1017 35.6272 14.185C35.6084 14.2683 35.5583 14.3412 35.4873 14.3887L21.8667 22.758L35.1493 15.0913C35.2252 15.0501 35.314 15.0399 35.3972 15.0628C35.4804 15.0858 35.5515 15.1401 35.5954 15.2144C35.6394 15.2887 35.6528 15.3771 35.6329 15.4611C35.613 15.5451 35.5613 15.618 35.4887 15.6647L27.9753 20.2173L35.1467 16.0773C35.2229 16.0324 35.3138 16.0196 35.3994 16.0418C35.4851 16.0639 35.5584 16.1191 35.6033 16.1953C35.6482 16.2715 35.661 16.3625 35.6389 16.4481C35.6168 16.5337 35.5615 16.6071 35.4853 16.652L35.1313 16.864L35.1467 16.8553C35.2223 16.8117 35.3121 16.7995 35.3967 16.8214C35.4813 16.8433 35.5539 16.8975 35.5989 16.9724C35.6439 17.0473 35.6577 17.1368 35.6373 17.2218C35.617 17.3068 35.5641 17.3803 35.49 17.4267L20.396 26.8767L35.1467 18.3607C35.222 18.3209 35.3098 18.3115 35.3918 18.3345C35.4739 18.3574 35.5441 18.4109 35.5879 18.4839C35.6318 18.557 35.646 18.644 35.6277 18.7272C35.6094 18.8105 35.5598 18.8835 35.4893 18.9313L23.3847 26.486L35.1467 19.696C35.2221 19.6551 35.3104 19.6449 35.3932 19.6675C35.476 19.6901 35.5468 19.7437 35.5911 19.8172C35.6353 19.8908 35.6495 19.9785 35.6306 20.0622C35.6118 20.1459 35.5614 20.2192 35.49 20.2667L24.3447 27.2667L35.1467 21.0333C35.2223 20.9929 35.3107 20.9832 35.3934 21.0062C35.476 21.0293 35.5466 21.0834 35.5904 21.1571C35.6342 21.2309 35.6479 21.3188 35.6286 21.4024C35.6092 21.486 35.5584 21.5589 35.4867 21.606L32.606 23.3713L35.1467 21.9047C35.2221 21.8615 35.3115 21.8496 35.3956 21.8714C35.4798 21.8932 35.5521 21.947 35.5972 22.0213C35.6422 22.0957 35.6564 22.1847 35.6368 22.2694C35.6171 22.3541 35.5652 22.4277 35.492 22.4747L25.842 28.628L35.1467 23.256C35.2219 23.2152 35.31 23.2049 35.3926 23.2273C35.4752 23.2497 35.5461 23.303 35.5905 23.3762C35.6349 23.4494 35.6494 23.5368 35.6311 23.6205C35.6127 23.7041 35.5629 23.7774 35.492 23.8253L28.24 28.4387L35.1467 24.452C35.222 24.4117 35.3099 24.4019 35.3922 24.4246C35.4745 24.4472 35.545 24.5006 35.5892 24.5737C35.6333 24.6469 35.6477 24.7341 35.6293 24.8175C35.611 24.9009 35.5614 24.9741 35.4907 25.022L31.6 27.474L35.15 25.4247C35.2247 25.3833 35.3124 25.3722 35.3951 25.3936C35.4777 25.415 35.549 25.4673 35.5942 25.5397C35.6395 25.6121 35.6552 25.6991 35.6381 25.7828C35.6211 25.8664 35.5726 25.9404 35.5027 25.9893L27.5647 31.3293L35.1467 26.95C35.2214 26.9066 35.31 26.894 35.3938 26.9147C35.4776 26.9353 35.5502 26.9877 35.5962 27.0609C35.6421 27.134 35.6579 27.222 35.6402 27.3066C35.6226 27.3911 35.5728 27.4655 35.5013 27.514L29.218 31.8087L35.1467 28.386C35.2208 28.3437 35.3083 28.3315 35.3912 28.3518C35.4741 28.3721 35.5461 28.4235 35.5922 28.4953C35.6384 28.5671 35.6552 28.6538 35.6393 28.7377C35.6234 28.8216 35.5759 28.8961 35.5067 28.946L30.2667 32.6733L35.1473 29.856C35.222 29.814 35.3099 29.8024 35.3929 29.8235C35.4759 29.8446 35.5475 29.8968 35.5931 29.9693C35.6386 30.0419 35.6544 30.1291 35.6374 30.213C35.6203 30.2969 35.5716 30.371 35.5013 30.42L33.6733 31.6627L35.1467 30.8127C35.22 30.7712 35.3062 30.759 35.3881 30.7785C35.47 30.7981 35.5415 30.8479 35.5882 30.9179C35.6349 30.988 35.6534 31.0732 35.6398 31.1563C35.6263 31.2394 35.5818 31.3143 35.5153 31.366L32.582 33.6047L35.144 32.1253C35.2162 32.084 35.3013 32.0711 35.3825 32.0892C35.4637 32.1074 35.5351 32.1552 35.5829 32.2234C35.6306 32.2916 35.651 32.3752 35.6403 32.4577C35.6295 32.5402 35.5883 32.6157 35.5247 32.6693L33.6053 34.2773L35.144 33.3893C35.2124 33.3497 35.2927 33.3356 35.3706 33.3497C35.4484 33.3638 35.5187 33.4051 35.5688 33.4663C35.619 33.5274 35.6458 33.6044 35.6444 33.6835C35.6431 33.7626 35.6136 33.8386 35.5613 33.898L34.4347 35.18L35.0433 34.8287C35.0813 34.8045 35.1237 34.7884 35.1681 34.7811C35.2124 34.7738 35.2578 34.7755 35.3015 34.7862C35.3451 34.7969 35.3862 34.8163 35.4221 34.8433C35.4581 34.8703 35.4882 34.9042 35.5107 34.9432C35.5332 34.9821 35.5476 35.0251 35.5531 35.0698C35.5585 35.1144 35.5548 35.1597 35.5423 35.2028C35.5298 35.246 35.5086 35.2862 35.4802 35.321C35.4517 35.3558 35.4165 35.3845 35.3767 35.4053L33.0187 36.7667C32.9503 36.8059 32.8703 36.8197 32.7927 36.8055C32.7152 36.7913 32.6452 36.7501 32.5951 36.6892C32.5451 36.6283 32.5183 36.5516 32.5194 36.4728C32.5205 36.394 32.5496 36.3181 32.6013 36.2587L33.7273 34.9767L30.626 36.7667C30.5539 36.8072 30.4693 36.8195 30.3887 36.8012C30.308 36.7828 30.2371 36.7351 30.1896 36.6674C30.1421 36.5997 30.1216 36.5167 30.1319 36.4346C30.1422 36.3525 30.1826 36.2772 30.2453 36.2233L32.1647 34.6153L28.4373 36.7667C28.364 36.8081 28.2778 36.8203 28.1959 36.8008C28.114 36.7813 28.0425 36.7315 27.9958 36.6614C27.9491 36.5913 27.9306 36.5061 27.9442 36.423C27.9577 36.3399 28.0022 36.265 28.0687 36.2133L31 33.9767L26.1633 36.7667C26.0889 36.8071 26.0018 36.8177 25.9198 36.7962C25.8378 36.7748 25.7671 36.7229 25.722 36.6511C25.6769 36.5794 25.6608 36.4931 25.677 36.4099C25.6933 36.3268 25.7406 36.2529 25.8093 36.2033L27.6387 34.9587L24.5067 36.7667C24.4327 36.8076 24.3459 36.8188 24.2639 36.7981C24.1819 36.7775 24.1109 36.7264 24.0651 36.6553C24.0194 36.5842 24.0023 36.4984 24.0175 36.4152C24.0326 36.3321 24.0788 36.2577 24.1467 36.2073L29.3853 32.4807L21.9607 36.7667C21.8861 36.8081 21.7986 36.8194 21.716 36.7983C21.6334 36.7771 21.562 36.7251 21.5166 36.6529C21.4711 36.5808 21.4551 36.494 21.4717 36.4103C21.4884 36.3267 21.5364 36.2526 21.606 36.2033L27.89 31.908L19.4733 36.7667C19.3986 36.808 19.3109 36.8192 19.2283 36.7978C19.1456 36.7764 19.0743 36.7241 19.0291 36.6516C18.9839 36.5792 18.9682 36.4922 18.9852 36.4086C19.0022 36.3249 19.0507 36.251 19.1207 36.202L27.0593 30.862L16.8313 36.7667C16.7559 36.8081 16.6674 36.8188 16.5843 36.7965C16.5012 36.7742 16.43 36.7207 16.3855 36.6471C16.341 36.5734 16.3266 36.4855 16.3455 36.4015C16.3643 36.3176 16.4149 36.2442 16.4867 36.1967L20.386 33.7413L15.146 36.7667C15.0707 36.8088 14.9819 36.82 14.8985 36.798C14.815 36.7761 14.7433 36.7226 14.6985 36.6488C14.6537 36.5751 14.6392 36.4868 14.6581 36.4026C14.6771 36.3184 14.7279 36.2448 14.8 36.1973L22.0527 31.5833L13.074 36.7667C12.9987 36.8088 12.9099 36.82 12.8265 36.798C12.743 36.7761 12.6713 36.7226 12.6265 36.6488C12.5817 36.5751 12.5672 36.4868 12.5861 36.4026C12.6051 36.3184 12.6559 36.2448 12.728 36.1973L22.3773 30.044L10.7333 36.7667C10.6576 36.8086 10.5685 36.8193 10.4849 36.7967C10.4013 36.774 10.3298 36.7198 10.2856 36.6454C10.2413 36.571 10.2277 36.4822 10.2477 36.398C10.2677 36.3137 10.3197 36.2406 10.3927 36.194L13.2667 34.4333L9.22733 36.7667C9.1518 36.809 9.06278 36.8203 8.97909 36.7981C8.8954 36.7759 8.82361 36.7221 8.77892 36.648C8.73422 36.5738 8.72013 36.4852 8.73962 36.4008C8.7591 36.3165 8.81064 36.243 8.88333 36.196L20.0327 29.1913L6.908 36.7667C6.83263 36.8064 6.7449 36.8158 6.66283 36.7929C6.58076 36.77 6.51059 36.7165 6.46672 36.6434C6.42286 36.5704 6.40863 36.4833 6.42697 36.4001C6.44531 36.3169 6.49482 36.2438 6.56533 36.196L18.6667 28.646L4.596 36.7667C4.54579 36.7967 4.48849 36.8128 4.43 36.8133Z" fill="#04555A"/>
<path d="M19.8233 24.5667C19.7499 24.5668 19.6785 24.5427 19.6202 24.4981C19.5618 24.4535 19.5199 24.3908 19.5008 24.3199C19.4817 24.249 19.4866 24.1738 19.5147 24.1059C19.5427 24.0381 19.5924 23.9814 19.656 23.9447L20.3993 23.5153C20.4759 23.4718 20.5665 23.4604 20.6514 23.4834C20.7364 23.5065 20.8087 23.5622 20.8528 23.6384C20.8968 23.7147 20.9088 23.8052 20.8863 23.8903C20.8638 23.9754 20.8086 24.0482 20.7327 24.0927L19.9893 24.5213C19.9391 24.551 19.8817 24.5667 19.8233 24.5667Z" fill="#04555A"/>
<path d="M3.12266 36.8133C3.05008 36.8136 2.97941 36.7901 2.92138 36.7465C2.86335 36.7029 2.82113 36.6416 2.80114 36.5718C2.78116 36.502 2.78449 36.4276 2.81063 36.3599C2.83677 36.2922 2.8843 36.2349 2.946 36.1967L3.72 35.7167L2.128 36.6333C2.05268 36.6736 1.96479 36.6834 1.88245 36.6607C1.80012 36.6381 1.72961 36.5847 1.68549 36.5116C1.64136 36.4385 1.62698 36.3512 1.64531 36.2678C1.66364 36.1844 1.71328 36.1112 1.784 36.0633L6.52133 33.0747L3.12733 35.0333C3.05246 35.0767 2.96366 35.0893 2.87969 35.0684C2.79572 35.0475 2.72316 34.9948 2.67737 34.9214C2.63157 34.8479 2.61611 34.7596 2.63427 34.675C2.65243 34.5904 2.70277 34.5162 2.77466 34.468L9.14 30.1813L7.72933 30.996C7.65539 31.0374 7.56844 31.0492 7.48617 31.0288C7.4039 31.0084 7.33249 30.9574 7.28645 30.8863C7.24042 30.8151 7.22323 30.7291 7.23838 30.6457C7.25353 30.5623 7.29988 30.4878 7.368 30.4373L11.6667 27.3413C11.5957 27.3191 11.5342 27.2738 11.492 27.2127C11.4445 27.1438 11.4246 27.0595 11.4363 26.9766C11.4481 26.8938 11.4905 26.8183 11.5553 26.7653L14.5807 24.2907C14.5755 24.2277 14.5884 24.1645 14.6178 24.1086C14.6472 24.0526 14.6919 24.0062 14.7467 23.9747L15.5207 23.5273C15.5931 23.4861 15.6783 23.4735 15.7596 23.492C15.8408 23.5105 15.9122 23.5588 15.9596 23.6273C16.007 23.6958 16.0271 23.7796 16.0158 23.8622C16.0045 23.9447 15.9627 24.0201 15.8987 24.0733L15.1553 24.6813L16.172 24.0953C16.2458 24.0551 16.3321 24.0442 16.4136 24.0649C16.495 24.0855 16.5657 24.1362 16.6114 24.2068C16.6571 24.2774 16.6744 24.3626 16.66 24.4454C16.6455 24.5282 16.6003 24.6025 16.5333 24.6533L13.1047 27.126L17.1713 24.7787C17.2463 24.7318 17.3368 24.7167 17.423 24.7365C17.5091 24.7564 17.5838 24.8097 17.6307 24.8847C17.6775 24.9596 17.6927 25.0501 17.6728 25.1363C17.6529 25.2224 17.5996 25.2971 17.5247 25.344L11.1527 29.6333L20.9333 23.9853C21.0087 23.9439 21.0972 23.9332 21.1803 23.9555C21.2634 23.9778 21.3347 24.0313 21.3792 24.1049C21.4237 24.1786 21.438 24.2665 21.4192 24.3505C21.4003 24.4344 21.3497 24.5078 21.278 24.5553L16.5447 27.5407L21.636 24.6007C21.7118 24.5552 21.8026 24.5418 21.8884 24.5633C21.9742 24.5848 22.0479 24.6395 22.0933 24.7153C22.1388 24.7912 22.1522 24.882 22.1307 24.9677C22.1092 25.0535 22.0545 25.1272 21.9787 25.1727L21.1787 25.6667L22.186 25.0853C22.261 25.0434 22.3492 25.032 22.4324 25.0536C22.5156 25.0752 22.5872 25.128 22.6323 25.2011C22.6775 25.2742 22.6926 25.3619 22.6747 25.4459C22.6568 25.5299 22.6071 25.6037 22.536 25.652L14.9887 30.6407L23.154 25.9267C23.2293 25.8846 23.3181 25.8733 23.4015 25.8953C23.485 25.9173 23.5567 25.9708 23.6015 26.0445C23.6463 26.1183 23.6608 26.2065 23.6419 26.2907C23.6229 26.3749 23.5721 26.4485 23.5 26.496L20.1 28.6667L23.8287 26.514C23.9036 26.4671 23.9941 26.452 24.0803 26.4719C24.1664 26.4917 24.2411 26.545 24.288 26.62C24.3349 26.695 24.35 26.7855 24.3301 26.8716C24.3103 26.9578 24.257 27.0325 24.182 27.0793L17.7933 31.3813L24.7793 27.348C24.8549 27.3021 24.9456 27.2881 25.0315 27.3091C25.1174 27.3302 25.1914 27.3844 25.2373 27.46C25.2832 27.5356 25.2972 27.6263 25.2762 27.7122C25.2552 27.7981 25.2009 27.8721 25.1253 27.918L24.1653 28.5293L25.348 27.8467C25.4222 27.805 25.5095 27.7933 25.5921 27.8139C25.6747 27.8345 25.7462 27.886 25.7921 27.9577C25.8379 28.0293 25.8546 28.1159 25.8387 28.1995C25.8229 28.2831 25.7756 28.3574 25.7067 28.4073L19.9867 32.422L26.368 28.738C26.4433 28.6951 26.5323 28.6833 26.6162 28.7049C26.7001 28.7266 26.7722 28.78 26.8174 28.8539C26.8625 28.9279 26.8771 29.0165 26.8581 29.101C26.839 29.1855 26.7878 29.2593 26.7153 29.3067L26.2767 29.5907L26.9187 29.22C26.9924 29.1784 27.0793 29.1664 27.1616 29.1865C27.2439 29.2066 27.3155 29.2573 27.3617 29.3283C27.408 29.3992 27.4255 29.4852 27.4107 29.5686C27.3959 29.652 27.3499 29.7266 27.282 29.7773L22.7487 33.0927L27.9267 30.1C28.0015 30.0566 28.0903 30.044 28.1743 30.0649C28.2583 30.0858 28.3308 30.1386 28.3766 30.212C28.4224 30.2854 28.4379 30.3737 28.4197 30.4583C28.4016 30.5429 28.3512 30.6172 28.2793 30.6653L27.2733 31.3433L28.5213 30.6233C28.5945 30.5816 28.6807 30.5691 28.7627 30.5883C28.8447 30.6075 28.9163 30.6571 28.9633 30.727C29.0102 30.7969 29.029 30.882 29.0158 30.9652C29.0025 31.0484 28.9583 31.1234 28.892 31.1753L25.62 33.7L29.4867 31.468C29.5596 31.4262 29.6456 31.4135 29.7274 31.4325C29.8093 31.4514 29.881 31.5005 29.9282 31.57C29.9754 31.6395 29.9946 31.7243 29.9819 31.8074C29.9693 31.8904 29.9257 31.9657 29.86 32.018L27.5113 33.8667L30.3533 32.226C30.4266 32.1845 30.5129 32.1723 30.5948 32.1919C30.6767 32.2114 30.7482 32.2612 30.7949 32.3313C30.8416 32.4014 30.86 32.4865 30.8465 32.5696C30.833 32.6528 30.7885 32.7277 30.722 32.7793L29.6753 33.5793L31.014 32.8067C31.0872 32.764 31.1738 32.7509 31.2564 32.7698C31.3389 32.7887 31.4111 32.8384 31.4584 32.9086C31.5057 32.9789 31.5244 33.0645 31.5108 33.1481C31.4973 33.2317 31.4524 33.307 31.3853 33.3587L30.88 33.75L31.6133 33.3287C31.6859 33.2871 31.7715 33.2743 31.8531 33.2928C31.9347 33.3114 32.0063 33.3599 32.0537 33.4289C32.1012 33.4978 32.1209 33.582 32.1091 33.6649C32.0973 33.7477 32.0548 33.8231 31.99 33.876L31.7027 34.11L32.1867 33.8307C32.2577 33.7894 32.3414 33.7759 32.4218 33.7925C32.5022 33.8092 32.5736 33.855 32.6223 33.9211C32.6711 33.9872 32.6937 34.0689 32.6859 34.1506C32.6781 34.2324 32.6404 34.3083 32.58 34.364L32.2113 34.704L32.798 34.366C32.8594 34.3313 32.9302 34.3169 33.0003 34.325C33.0704 34.3331 33.1361 34.3632 33.188 34.411C33.2398 34.4588 33.2752 34.5218 33.289 34.591C33.3028 34.6602 33.2943 34.732 33.2647 34.796L32.856 35.6627L33.712 35.1667C33.7703 35.1329 33.8374 35.1175 33.9045 35.1227C33.9717 35.1278 34.0357 35.1531 34.0882 35.1953C34.1406 35.2376 34.1791 35.2947 34.1985 35.3592C34.2178 35.4237 34.2172 35.4925 34.1967 35.5567L34.1353 35.7467L34.2807 35.6633C34.3186 35.6392 34.361 35.623 34.4054 35.6157C34.4498 35.6084 34.4951 35.6102 34.5388 35.6209C34.5825 35.6316 34.6235 35.651 34.6595 35.678C34.6954 35.7049 34.7256 35.7389 34.7481 35.7778C34.7706 35.8167 34.785 35.8598 34.7904 35.9044C34.7958 35.9491 34.7921 35.9943 34.7796 36.0375C34.7671 36.0807 34.746 36.1209 34.7175 36.1557C34.689 36.1905 34.6538 36.2192 34.614 36.24L33.722 36.7553C33.6637 36.7891 33.5966 36.8045 33.5295 36.7993C33.4623 36.7942 33.3983 36.7689 33.3458 36.7267C33.2934 36.6844 33.2549 36.6273 33.2355 36.5628C33.2162 36.4983 33.2168 36.4295 33.2373 36.3653L33.2987 36.1747L32.2667 36.7667C32.2053 36.8014 32.1344 36.8157 32.0644 36.8077C31.9943 36.7996 31.9286 36.7695 31.8767 36.7217C31.8248 36.6739 31.7894 36.6108 31.7757 36.5417C31.7619 36.4725 31.7704 36.4007 31.8 36.3367L32.2087 35.47L29.9607 36.7667C29.8897 36.8073 29.8062 36.8204 29.7262 36.8035C29.6461 36.7866 29.5751 36.7409 29.5266 36.675C29.4781 36.6092 29.4555 36.5277 29.4632 36.4463C29.4708 36.3648 29.5081 36.2891 29.568 36.2333L29.9367 35.8927L28.422 36.7667C28.3495 36.8081 28.2641 36.8208 28.1827 36.8022C28.1013 36.7837 28.0298 36.7353 27.9824 36.6666C27.9349 36.5979 27.915 36.5138 27.9265 36.4312C27.9381 36.3485 27.9802 36.2731 28.0447 36.22L28.3307 35.9867L26.98 36.7667C26.9068 36.8093 26.8202 36.8225 26.7376 36.8035C26.6551 36.7846 26.5829 36.735 26.5356 36.6647C26.4883 36.5945 26.4696 36.5088 26.4832 36.4252C26.4967 36.3417 26.5416 36.2664 26.6087 36.2147L27.1153 35.822L25.4787 36.7667C25.4054 36.8081 25.3191 36.8203 25.2372 36.8008C25.1553 36.7813 25.0838 36.7315 25.0371 36.6614C24.9904 36.5913 24.972 36.5061 24.9855 36.423C24.999 36.3399 25.0435 36.265 25.11 36.2133L26.1553 35.4173L23.8173 36.7667C23.7444 36.8084 23.6584 36.8211 23.5766 36.8022C23.4947 36.7833 23.423 36.7342 23.3758 36.6646C23.3286 36.5951 23.3094 36.5104 23.3221 36.4273C23.3347 36.3442 23.3783 36.269 23.444 36.2167L25.7933 34.3667L21.6373 36.7667C21.5642 36.8084 21.478 36.8209 21.396 36.8017C21.314 36.7825 21.2423 36.7329 21.1954 36.663C21.1484 36.5931 21.1297 36.508 21.1429 36.4248C21.1561 36.3417 21.2003 36.2666 21.2667 36.2147L24.5387 33.6907L19.2093 36.7667C19.1346 36.808 19.0469 36.8192 18.9643 36.7978C18.8816 36.7764 18.8103 36.7241 18.7651 36.6517C18.7199 36.5792 18.7042 36.4922 18.7212 36.4086C18.7382 36.3249 18.7867 36.251 18.8567 36.202L19.8567 35.5273L17.712 36.7667C17.6382 36.8083 17.5513 36.8203 17.469 36.8002C17.3868 36.7801 17.3152 36.7294 17.2689 36.6584C17.2227 36.5874 17.2052 36.5015 17.22 36.4181C17.2348 36.3347 17.2808 36.26 17.3487 36.2093L21.882 32.8953L15.178 36.7667C15.1028 36.8087 15.0144 36.8199 14.9311 36.7982C14.8478 36.7764 14.7762 36.7232 14.7312 36.6498C14.6862 36.5764 14.6714 36.4884 14.6898 36.4044C14.7082 36.3203 14.7585 36.2466 14.83 36.1987L15.2753 35.9107L13.792 36.7667C13.7178 36.8084 13.6305 36.8201 13.5479 36.7994C13.4653 36.7788 13.3938 36.7274 13.3479 36.6557C13.3021 36.584 13.2854 36.4975 13.3013 36.4139C13.3171 36.3303 13.3644 36.2559 13.4333 36.206L19.1547 32.19L11.2267 36.7667C11.1513 36.8088 11.0626 36.82 10.9791 36.798C10.8957 36.7761 10.824 36.7226 10.7792 36.6488C10.7343 36.5751 10.7199 36.4868 10.7388 36.4026C10.7577 36.3184 10.8086 36.2448 10.8807 36.1973L11.834 35.59L9.79533 36.7667C9.72064 36.808 9.63293 36.8192 9.55027 36.7978C9.46762 36.7764 9.39633 36.7241 9.3511 36.6517C9.30587 36.5792 9.29016 36.4922 9.30719 36.4086C9.32423 36.3249 9.37272 36.251 9.44266 36.202L15.83 31.9L7.4 36.7667C7.32466 36.8088 7.23593 36.82 7.15247 36.798C7.06901 36.7761 6.99732 36.7226 6.9525 36.6488C6.90768 36.5751 6.89321 36.4868 6.91214 36.4026C6.93107 36.3184 6.98192 36.2448 7.054 36.1973L10.4467 34.0333L5.708 36.7667C5.6332 36.807 5.54584 36.8172 5.46377 36.7952C5.3817 36.7732 5.31112 36.7208 5.26644 36.6485C5.22176 36.5762 5.20635 36.4897 5.22337 36.4064C5.24038 36.3232 5.28854 36.2496 5.358 36.2007L12.9167 31.2087L3.28866 36.7667C3.23848 36.7968 3.18117 36.8129 3.12266 36.8133Z" fill="#04555A"/>
<path d="M18.2004 25.4673C18.13 25.4683 18.0612 25.447 18.0036 25.4065C17.9461 25.366 17.9029 25.3083 17.8802 25.2417C17.8575 25.1751 17.8564 25.103 17.8772 25.0357C17.8979 24.9685 17.9394 24.9096 17.9957 24.8673L18.7491 24.2847L17.2084 25.174C17.1339 25.2174 17.0454 25.2302 16.9617 25.2097C16.8779 25.1893 16.8054 25.1372 16.7592 25.0644C16.713 24.9915 16.6969 24.9037 16.7141 24.8192C16.7314 24.7347 16.7807 24.6602 16.8517 24.6113L19.7784 22.5807L16.4024 24.5293C16.3273 24.572 16.2385 24.5839 16.1549 24.5625C16.0712 24.541 15.9991 24.4879 15.9538 24.4143C15.9085 24.3408 15.8935 24.2525 15.9121 24.1681C15.9306 24.0837 15.9811 24.0098 16.0531 23.962L20.8104 20.8287L15.6077 23.8333C15.532 23.877 15.4422 23.8892 15.3577 23.8673C15.2731 23.8454 15.2005 23.7911 15.1555 23.7163C15.1105 23.6414 15.0967 23.5518 15.1171 23.4669C15.1374 23.3819 15.1903 23.3084 15.2644 23.262L16.6151 22.4187L15.0344 23.3313C14.9593 23.3749 14.8703 23.3874 14.7861 23.3663C14.702 23.3452 14.6294 23.2921 14.5837 23.2184C14.5381 23.1446 14.523 23.056 14.5417 22.9712C14.5603 22.8865 14.6113 22.8124 14.6837 22.7647L23.5157 16.92L13.9904 22.4193C13.9152 22.4613 13.8267 22.4726 13.7435 22.4508C13.6602 22.4291 13.5885 22.3759 13.5436 22.3025C13.4986 22.2291 13.4838 22.1411 13.5022 22.057C13.5206 21.9729 13.5708 21.8992 13.6424 21.8513L19.8817 17.796L13.1484 21.682C13.0735 21.7228 12.9858 21.7333 12.9034 21.7113C12.8209 21.6894 12.7501 21.6367 12.7053 21.5641C12.6606 21.4915 12.6453 21.4045 12.6628 21.3211C12.6802 21.2376 12.729 21.164 12.799 21.1153L18.545 17.3473L12.3097 20.9473C12.2342 20.9897 12.1452 21.0009 12.0615 20.9788C11.9778 20.9566 11.906 20.9028 11.8613 20.8286C11.8166 20.7545 11.8025 20.6659 11.822 20.5815C11.8415 20.4972 11.893 20.4237 11.9657 20.3767L12.4864 20.0487L11.7617 20.4667C11.687 20.5093 11.5986 20.5213 11.5152 20.5003C11.4318 20.4793 11.3597 20.4268 11.3141 20.3539C11.2685 20.281 11.2528 20.1932 11.2704 20.109C11.2879 20.0248 11.3374 19.9506 11.4084 19.902L16.715 16.332L10.8864 19.7C10.8115 19.7434 10.7227 19.756 10.6387 19.7351C10.5548 19.7142 10.4822 19.6615 10.4364 19.588C10.3906 19.5146 10.3752 19.4263 10.3933 19.3417C10.4115 19.2571 10.4618 19.1828 10.5337 19.1347L14.7731 16.278L10.0757 18.9893C10.0014 19.0309 9.91391 19.0424 9.83134 19.0215C9.74876 19.0006 9.67732 18.9489 9.63168 18.877C9.58604 18.805 9.56966 18.7184 9.58591 18.6348C9.60215 18.5512 9.6498 18.4769 9.71905 18.4273L13.9397 15.5L9.20972 18.2333C9.13552 18.275 9.04819 18.2867 8.96563 18.2661C8.88306 18.2455 8.81152 18.194 8.76566 18.1224C8.7198 18.0507 8.70309 17.9641 8.71897 17.8805C8.73485 17.7969 8.7821 17.7226 8.85105 17.6727L12.437 15.1393L8.36505 17.4893C8.29079 17.5377 8.20036 17.5546 8.11366 17.5363C8.02695 17.5179 7.95107 17.4659 7.90272 17.3917C7.85436 17.3174 7.83748 17.227 7.8558 17.1403C7.87411 17.0536 7.92612 16.9777 8.00038 16.9293L11.0264 14.7433L7.53372 16.7607C7.4589 16.805 7.36973 16.8183 7.28523 16.7978C7.20072 16.7773 7.12757 16.7246 7.08138 16.651C7.03519 16.5773 7.01962 16.4885 7.038 16.4035C7.05637 16.3185 7.10722 16.244 7.17972 16.196L7.29172 16.1207L6.99705 16.2907C6.92404 16.3336 6.83742 16.3471 6.75479 16.3285C6.67216 16.3099 6.59973 16.2605 6.5522 16.1904C6.50467 16.1203 6.48561 16.0347 6.49889 15.951C6.51218 15.8674 6.55681 15.7919 6.62372 15.74L9.11172 13.776L6.10772 15.5093C6.03558 15.5513 5.95036 15.5646 5.86887 15.5467C5.78737 15.5289 5.71555 15.4811 5.66756 15.4128C5.61958 15.3446 5.59893 15.2608 5.6097 15.1781C5.62047 15.0954 5.66186 15.0197 5.72572 14.966L7.64838 13.3413L5.22838 14.7413C5.15596 14.7826 5.07074 14.7951 4.98949 14.7766C4.90824 14.7581 4.83688 14.7099 4.78945 14.6414C4.74202 14.5729 4.72197 14.4891 4.73324 14.4065C4.74452 14.324 4.78631 14.2486 4.85038 14.1953L5.65972 13.534L4.56838 14.1633C4.49949 14.2029 4.41871 14.2166 4.34062 14.2019C4.26252 14.1873 4.19224 14.1451 4.14245 14.0832C4.09266 14.0213 4.06664 13.9436 4.06907 13.8642C4.0715 13.7847 4.10223 13.7088 4.15572 13.65L5.15572 12.5593L3.69972 13.3987C3.63963 13.4334 3.57019 13.4486 3.50109 13.442C3.43198 13.4354 3.36667 13.4073 3.31425 13.3618C3.26184 13.3163 3.22494 13.2556 3.20871 13.1881C3.19248 13.1206 3.19773 13.0497 3.22372 12.9853L3.63905 11.96L2.68638 12.5107C2.63758 12.5388 2.58246 12.554 2.52616 12.5551C2.46985 12.5561 2.41421 12.5428 2.36441 12.5166C2.31462 12.4903 2.2723 12.4518 2.2414 12.4047C2.2105 12.3576 2.19203 12.3035 2.18772 12.2473L2.15038 11.756L1.95438 11.8693C1.91643 11.8912 1.87454 11.9054 1.8311 11.9111C1.78766 11.9168 1.74353 11.9139 1.70121 11.9025C1.6589 11.8912 1.61924 11.8716 1.5845 11.8449C1.54975 11.8182 1.5206 11.785 1.49872 11.747C1.47683 11.7091 1.46263 11.6672 1.45693 11.6237C1.45124 11.5803 1.45415 11.5361 1.46551 11.4938C1.47687 11.4515 1.49645 11.4119 1.52314 11.3771C1.54983 11.3424 1.5831 11.3132 1.62105 11.2913L2.27572 10.9133C2.32478 10.885 2.38025 10.8696 2.43689 10.8687C2.49354 10.8678 2.54949 10.8813 2.59947 10.908C2.64944 10.9346 2.69179 10.9736 2.72251 11.0212C2.75323 11.0688 2.77131 11.1235 2.77505 11.18L2.81238 11.6713L4.14572 10.9013C4.20579 10.8668 4.27513 10.8519 4.34409 10.8586C4.41305 10.8653 4.4782 10.8934 4.53048 10.9388C4.58277 10.9843 4.61959 11.0449 4.63582 11.1123C4.65205 11.1796 4.64689 11.2504 4.62105 11.3147L4.20572 12.3393L6.69705 10.9C6.76594 10.8604 6.84672 10.8467 6.92482 10.8614C7.00291 10.8761 7.07319 10.9182 7.12298 10.9801C7.17277 11.0421 7.1988 11.1198 7.19636 11.1992C7.19393 11.2786 7.1632 11.3546 7.10972 11.4133L6.11105 12.5L8.88972 10.9C8.96211 10.8595 9.04702 10.8474 9.12784 10.8662C9.20866 10.8849 9.27959 10.9331 9.32676 11.0014C9.37393 11.0696 9.39395 11.153 9.38291 11.2352C9.37186 11.3175 9.33055 11.3926 9.26705 11.446L8.45772 12.108L10.5517 10.9C10.6237 10.8596 10.7082 10.8474 10.7887 10.8657C10.8692 10.884 10.9401 10.9315 10.9875 10.9991C11.035 11.0666 11.0557 11.1494 11.0457 11.2314C11.0356 11.3133 10.9955 11.3886 10.9331 11.4427L9.01172 13.0673L12.765 10.9C12.838 10.8582 12.9239 10.8455 13.0058 10.8645C13.0877 10.8834 13.1594 10.9325 13.2066 11.002C13.2537 11.0715 13.2729 11.1563 13.2603 11.2394C13.2477 11.3224 13.2041 11.3977 13.1384 11.45L10.6504 13.414L15.0057 10.9C15.0803 10.8591 15.1677 10.8483 15.25 10.8697C15.3323 10.8912 15.4033 10.9433 15.4484 11.0153C15.4936 11.0874 15.5095 11.174 15.4929 11.2574C15.4762 11.3408 15.4284 11.4147 15.359 11.464L15.2464 11.5413L16.357 10.9C16.431 10.8576 16.5185 10.8451 16.6014 10.8651C16.6843 10.8852 16.7563 10.9363 16.8027 11.0078C16.8491 11.0794 16.8663 11.1661 16.8507 11.2499C16.8351 11.3338 16.788 11.4085 16.719 11.4587L13.6924 13.644L18.4464 10.9C18.5204 10.8596 18.607 10.8488 18.6887 10.8698C18.7704 10.8907 18.8412 10.9419 18.8867 11.0129C18.9321 11.0839 18.949 11.1695 18.9339 11.2525C18.9187 11.3355 18.8727 11.4096 18.805 11.46L15.2204 13.9933L20.5737 10.9C20.6481 10.8573 20.7361 10.8449 20.8194 10.8655C20.9027 10.886 20.9749 10.9379 21.0209 11.0103C21.067 11.0827 21.0833 11.17 21.0666 11.2542C21.0498 11.3383 21.0013 11.4127 20.931 11.462L16.7097 14.3893L22.7551 10.9C22.8297 10.8586 22.9175 10.8475 23.0001 10.8689C23.0828 10.8903 23.1541 10.9426 23.1993 11.015C23.2445 11.0874 23.2602 11.1744 23.2432 11.2581C23.2262 11.3418 23.1777 11.4157 23.1077 11.4647L18.8671 14.32L24.7957 10.9C24.8705 10.8574 24.9588 10.8454 25.0422 10.8664C25.1256 10.8874 25.1977 10.9399 25.2433 11.0128C25.289 11.0857 25.3046 11.1735 25.2871 11.2577C25.2695 11.3419 25.22 11.4161 25.1491 11.4647L19.8437 15.0333L27.0044 10.9C27.0797 10.8598 27.1676 10.8499 27.2499 10.8726C27.3323 10.8952 27.4028 10.9486 27.4469 11.0218C27.491 11.0949 27.5054 11.1821 27.4871 11.2655C27.4687 11.3489 27.4191 11.4221 27.3484 11.47L26.8264 11.7993L28.3851 10.9C28.46 10.8581 28.5483 10.8467 28.6315 10.8683C28.7146 10.8898 28.7862 10.9427 28.8314 11.0158C28.8765 11.0888 28.8917 11.1765 28.8737 11.2606C28.8558 11.3446 28.8061 11.4184 28.7351 11.4667L22.9871 15.2333L30.4971 10.9C30.5721 10.8587 30.6601 10.8478 30.743 10.8697C30.8258 10.8916 30.897 10.9445 30.9418 11.0175C30.9867 11.0904 31.0017 11.1779 30.9838 11.2616C30.9659 11.3454 30.9165 11.4191 30.8457 11.4673L24.6097 15.52L32.6097 10.9C32.6846 10.8587 32.7725 10.8477 32.8552 10.8693C32.9379 10.891 33.0091 10.9436 33.0542 11.0163C33.0992 11.089 33.1146 11.1762 33.0971 11.2599C33.0797 11.3436 33.0307 11.4174 32.9604 11.466L24.1337 17.3127L33.0424 12.17C33.1178 12.1303 33.2055 12.1209 33.2876 12.1438C33.3696 12.1667 33.4398 12.2202 33.4837 12.2932C33.5275 12.3663 33.5418 12.4534 33.5234 12.5366C33.5051 12.6198 33.4556 12.6928 33.3851 12.7407L30.4591 14.5667C30.5274 14.5738 30.5919 14.6019 30.6437 14.6471C30.6955 14.6923 30.7321 14.7525 30.7484 14.8193C30.7646 14.8861 30.7599 14.9563 30.7347 15.0203C30.7095 15.0842 30.6652 15.1389 30.6077 15.1767L25.8551 18.31L26.3964 17.998C26.4709 17.9546 26.5593 17.9418 26.6431 17.9623C26.7268 17.9827 26.7994 18.0348 26.8456 18.1076C26.8917 18.1805 26.9079 18.2683 26.8906 18.3528C26.8734 18.4373 26.8241 18.5118 26.7531 18.5607L22.9337 21.206C22.995 21.2204 23.051 21.2519 23.0952 21.2967C23.1393 21.3416 23.1699 21.3981 23.1833 21.4596C23.1966 21.5211 23.1923 21.5852 23.1708 21.6444C23.1493 21.7036 23.1115 21.7554 23.0617 21.794L20.1037 24.0827C20.1352 24.1575 20.1383 24.2413 20.1124 24.3183C20.0865 24.3952 20.0334 24.4601 19.9631 24.5007L18.3671 25.4227C18.3165 25.4523 18.2589 25.4677 18.2004 25.4673Z" fill="#04555A"/>
<path d="M32.5413 19.4587C32.4707 19.4587 32.4018 19.4364 32.3447 19.3948C32.2876 19.3531 32.2451 19.2945 32.2236 19.2272C32.202 19.1599 32.2023 19.0875 32.2246 19.0204C32.2468 18.9533 32.2898 18.895 32.3473 18.854L32.9693 18.4087L31.292 19.3773C31.2179 19.4196 31.1303 19.4319 31.0474 19.4115C30.9645 19.3912 30.8926 19.3398 30.8464 19.268C30.8003 19.1962 30.7834 19.1095 30.7994 19.0256C30.8153 18.9418 30.8627 18.8672 30.932 18.8173L33.034 17.3307L29.974 19.0973C29.9 19.1398 29.8126 19.1523 29.7297 19.1322C29.6468 19.1121 29.5747 19.0611 29.5283 18.9895C29.482 18.9179 29.4648 18.8313 29.4803 18.7474C29.4959 18.6635 29.543 18.5888 29.612 18.5387L33.8 15.5167L28.616 18.51C28.5414 18.5526 28.4533 18.5648 28.3699 18.544C28.2866 18.5233 28.2145 18.4711 28.1686 18.3984C28.1228 18.3258 28.1068 18.2382 28.124 18.1541C28.1411 18.0699 28.1901 17.9956 28.2607 17.9467L31.9687 15.4033L27.6727 17.8833C27.5976 17.926 27.5088 17.9379 27.4251 17.9164C27.3415 17.895 27.2694 17.8419 27.2241 17.7683C27.1788 17.6948 27.1638 17.6065 27.1823 17.5221C27.2009 17.4377 27.2514 17.3638 27.3233 17.316L28.822 16.3367L27.0613 17.3527C26.9868 17.3935 26.8994 17.4044 26.8171 17.3829C26.7348 17.3615 26.6638 17.3094 26.6186 17.2373C26.5735 17.1653 26.5576 17.0787 26.5742 16.9952C26.5908 16.9118 26.6387 16.8379 26.708 16.7887L30.946 13.914L26.3613 16.5607C26.2863 16.6052 26.1969 16.6186 26.1121 16.5979C26.0274 16.5773 25.9541 16.5242 25.908 16.4501C25.862 16.376 25.8468 16.2869 25.8657 16.2017C25.8847 16.1166 25.9362 16.0422 26.0093 15.9947L29.76 13.486L25.8267 15.756C25.7523 15.7987 25.6643 15.8111 25.581 15.7905C25.4977 15.77 25.4255 15.7181 25.3795 15.6457C25.3334 15.5733 25.3171 15.486 25.3338 15.4019C25.3506 15.3177 25.3991 15.2433 25.4693 15.194L30.9493 11.3793L25.3053 14.638C25.2301 14.6817 25.1407 14.6943 25.0563 14.6731C24.972 14.6518 24.8992 14.5984 24.8537 14.5242C24.8082 14.4501 24.7934 14.361 24.8127 14.2761C24.8319 14.1913 24.8836 14.1173 24.9567 14.07L26.696 12.9367L25.0667 13.8753C24.9924 13.9181 24.9045 13.9307 24.8213 13.9104C24.738 13.8902 24.6658 13.8386 24.6195 13.7664C24.5733 13.6943 24.5566 13.6071 24.573 13.523C24.5893 13.4388 24.6374 13.3642 24.7073 13.3147L29.8967 9.648L24.8707 12.5467C24.7968 12.5898 24.7091 12.6028 24.6258 12.5831C24.5425 12.5633 24.4701 12.5123 24.4234 12.4406C24.3767 12.3689 24.3593 12.282 24.375 12.1979C24.3906 12.1137 24.438 12.0388 24.5073 11.9887L29.4 8.41733L24.9407 10.9913C24.8659 11.0321 24.7784 11.0428 24.696 11.0211C24.6137 10.9994 24.5428 10.947 24.4978 10.8747C24.4529 10.8024 24.4373 10.7156 24.4543 10.6321C24.4713 10.5487 24.5196 10.4749 24.5893 10.426L25.0653 10.1087C24.991 10.1282 24.9122 10.1214 24.8423 10.0895C24.7724 10.0576 24.7156 10.0025 24.6817 9.93355C24.6477 9.86461 24.6386 9.78605 24.6559 9.71118C24.6732 9.6363 24.7159 9.56971 24.7767 9.52267L27.728 7.22333L25.9687 8.238C25.8955 8.28063 25.8089 8.29382 25.7263 8.27488C25.6438 8.25594 25.5715 8.2063 25.5243 8.13604C25.477 8.06578 25.4583 7.98016 25.4718 7.89658C25.4854 7.81299 25.5303 7.7377 25.5973 7.686L26.8913 6.686C26.8553 6.65949 26.8253 6.62563 26.8033 6.58666C26.7591 6.5101 26.7472 6.41912 26.77 6.33373C26.7929 6.24834 26.8488 6.17553 26.9253 6.13133L29.61 4.58133C29.6832 4.5387 29.7698 4.52551 29.8524 4.54445C29.9349 4.56339 30.0071 4.61302 30.0544 4.68329C30.1017 4.75355 30.1204 4.83917 30.1068 4.92275C30.0933 5.00634 30.0484 5.08163 29.9813 5.13333L29.8707 5.21933L31.5573 4.24533C31.6304 4.20301 31.7168 4.19001 31.7991 4.20894C31.8814 4.22788 31.9535 4.27735 32.0007 4.34735C32.0479 4.41735 32.0668 4.50267 32.0536 4.58607C32.0403 4.66947 31.9959 4.74474 31.9293 4.79666L28.9807 7.09333L33.5747 4.44066C33.6497 4.39612 33.7391 4.38274 33.8239 4.40341C33.9086 4.42408 33.9819 4.47714 34.028 4.55121C34.074 4.62529 34.0892 4.71447 34.0703 4.79962C34.0513 4.88476 33.9998 4.9591 33.9267 5.00666L33.608 5.21866L34.4667 4.72466C34.5406 4.68154 34.6283 4.6685 34.7115 4.68824C34.7948 4.70798 34.8673 4.75899 34.914 4.8307C34.9607 4.90241 34.978 4.98934 34.9624 5.07347C34.9467 5.15761 34.8993 5.23251 34.83 5.28266L29.9333 8.85533L35.8513 5.43866C35.9256 5.39585 36.0135 5.38328 36.0967 5.40356C36.18 5.42384 36.2522 5.47541 36.2985 5.54757C36.3447 5.61972 36.3614 5.70691 36.3451 5.79104C36.3287 5.87516 36.2806 5.94976 36.2107 5.99933L31.0247 9.666L36.8987 6.27466C36.9739 6.23091 37.0633 6.21832 37.1477 6.23958C37.2321 6.26084 37.3048 6.31426 37.3503 6.38843C37.3958 6.46261 37.4106 6.55164 37.3913 6.63652C37.3721 6.7214 37.3204 6.79538 37.2473 6.84266L35.506 7.97933L37.446 6.85933C37.5204 6.81663 37.6084 6.80426 37.6917 6.8248C37.775 6.84533 37.8472 6.89719 37.8932 6.96959C37.9392 7.04198 37.9556 7.12934 37.9388 7.21348C37.9221 7.29762 37.8736 7.37207 37.8033 7.42133L32.32 11.2333L38.152 7.86733C38.2268 7.8254 38.3149 7.81391 38.3979 7.83525C38.481 7.85659 38.5526 7.90911 38.598 7.98191C38.6433 8.0547 38.6588 8.14217 38.6413 8.22612C38.6238 8.31007 38.5746 8.38404 38.504 8.43266L34.7507 10.944L38.5853 8.73066C38.6599 8.68978 38.7473 8.67895 38.8296 8.70039C38.9119 8.72183 38.9829 8.77392 39.028 8.84599C39.0732 8.91807 39.0891 9.00467 39.0725 9.08808C39.0559 9.17149 39.008 9.2454 38.9387 9.29466L34.7027 12.168L38.9193 9.73333C38.9946 9.68958 39.0839 9.67699 39.1683 9.69825C39.2527 9.71951 39.3255 9.77293 39.371 9.8471C39.4165 9.92127 39.4312 10.0103 39.412 10.0952C39.3927 10.1801 39.3411 10.254 39.268 10.3013L37.7727 11.2787L39.072 10.5287C39.1466 10.4844 39.2356 10.471 39.3199 10.4913C39.4043 10.5116 39.4774 10.564 39.5237 10.6374C39.5701 10.7107 39.586 10.7992 39.5681 10.8841C39.5502 10.969 39.5 11.0436 39.428 11.092L35.7187 13.6353L39.142 11.6593C39.216 11.6169 39.3034 11.6044 39.3863 11.6245C39.4692 11.6445 39.5413 11.6956 39.5877 11.7672C39.634 11.8388 39.6512 11.9254 39.6357 12.0093C39.6201 12.0931 39.573 12.1678 39.504 12.218L35.3173 15.24L38.9687 13.132C39.0429 13.0892 39.1308 13.0766 39.2141 13.0969C39.2973 13.1172 39.3696 13.1687 39.4158 13.2409C39.4621 13.3131 39.4787 13.4002 39.4624 13.4844C39.446 13.5685 39.3979 13.6431 39.328 13.6927L37.2293 15.18L38.5627 14.4093C38.6367 14.3675 38.7239 14.3555 38.8065 14.3759C38.8891 14.3963 38.9607 14.4474 39.0068 14.5189C39.0529 14.5904 39.0699 14.6767 39.0544 14.7604C39.0389 14.844 38.992 14.9185 38.9233 14.9687L38.0147 15.6187C38.0768 15.6146 38.1388 15.6279 38.1937 15.6573C38.2486 15.6866 38.2942 15.7307 38.3253 15.7847C38.3694 15.8611 38.3813 15.9518 38.3586 16.0371C38.3359 16.1223 38.2803 16.195 38.204 16.2393L32.708 19.4133C32.6575 19.443 32.5999 19.4587 32.5413 19.4587Z" fill="#04555A"/>
<path d="M34.5093 4.578C30.0707 3.11133 24.742 6.24466 24.266 10.9653C16.8327 11.1213 9.316 10.6513 1.91866 11.1513C1.64466 11.024 1.15666 11.2493 1.14733 11.5173C-1.15267 14.7367 0.79333 23.5053 0.182664 27.8793C0.528664 31.1927 -1.51 37.7667 4.01866 36.7C40.4567 35.1227 35.698 44.134 35.8187 18.3927C41.5667 15.512 40.8147 6.32 34.5093 4.578ZM23.7647 11.3667H24.222C24.13 12.5375 24.317 13.7134 24.7674 14.7979C25.2179 15.8825 25.919 16.8448 26.8133 17.606C14.306 28.9493 20.3053 25.6613 2.272 11.4333C9.41866 11.2487 16.606 11.4293 23.7647 11.3667ZM1.14933 30.784C1.46266 24.58 0.512664 18.0507 1.53733 11.984C6.02 15.912 10.5022 19.8402 14.984 23.7687L1.58066 35.5293C0.737997 34.2173 1.29533 32.2947 1.14933 30.784ZM30.7387 36.3C21.2287 35.976 11.41 36.9413 2.03533 35.936L15.4427 24.1727C15.725 24.5634 16.0955 24.882 16.5241 25.1027C16.9526 25.3235 17.4272 25.4401 17.9092 25.443C18.3913 25.446 18.8672 25.3353 19.2985 25.1199C19.7297 24.9045 20.1042 24.5905 20.3913 24.2033L34.0127 36.1533C33 36.512 31.8 36.2527 30.7387 36.3ZM34.6113 35.5227L21.052 23.626C23.1711 21.7713 25.2891 19.9151 27.406 18.0573C28.4872 18.7886 29.731 19.2439 31.0288 19.3834C32.3266 19.5228 33.6388 19.3422 34.8507 18.8573C34.6567 24.3873 35.244 30.052 34.6113 35.5213V35.5227ZM34.3447 18.5187C23.18 21.7733 21.8933 2.852 33.4927 4.98533C39.9793 6.43333 40.682 16.3293 34.348 18.5173L34.3447 18.5187Z" fill="#121419"/>
<rect x="17.5" y="1" width="23" height="23" rx="11.5" fill="#C05555"/>
<rect x="17.5" y="1" width="23" height="23" rx="11.5" stroke="#121419"/>
</svg>
